<?xml version="1.0" encoding="utf-8"?>
<!-- Svg Vector Icons : http://www.onlinewebfonts.com/icon -->
<!DOCTYPE svg PUBLIC "-//W3C//DTD SVG 1.1//EN" "http://www.w3.org/Graphics/SVG/1.1/DTD/svg11.dtd">
<svg version="1.1" xmlns="http://www.w3.org/2000/svg" xmlns:xlink="http://www.w3.org/1999/xlink" x="0px" y="0px" viewBox="0 0 1000 1000" enable-background="new 0 0 1000 1000" xml:space="preserve">
<metadata> Svg Vector Icons : http://www.onlinewebfonts.com/icon </metadata>
<g><g><path d="M500,10C229.4,10,10,229.4,10,500s219.4,490,490,490s490-219.4,490-490S770.6,10,500,10z M500,914.6C271,914.6,85.4,729,85.4,500C85.4,271,271,85.4,500,85.4C729,85.4,914.6,271,914.6,500C914.6,729,729,914.6,500,914.6z M509.8,420.4c-16.8,0-33.4,4-49.5,12.1l11.5-64.2h136.5v-67.7H416.9l-37.1,196.7l58.7,8.6c16.5-18.5,35.1-27.7,55.9-27.7c16.7,0,30.2,5.8,40.6,17.4c10.4,11.6,15.6,29,15.6,52.2c0,24.8-5.3,43.3-15.7,55.6c-10.5,12.3-23.3,18.4-38.4,18.4c-13.2,0-24.9-4.7-35.1-14.3c-10.2-9.5-16.2-22.4-18.3-38.7l-72.1,7.5c4.3,31.6,17.4,56.8,39.4,75.5c22,18.7,50.4,28,85.3,28c43.6,0,77.7-16.6,102.3-50c18.1-24.4,27-52.2,27-83.3c0-37.3-11.2-67.6-33.5-91C569.1,432.1,541.9,420.4,509.8,420.4L509.8,420.4z"/></g></g>
</svg>