<svg xmlns="http://www.w3.org/2000/svg" viewBox="0 0 333333 333333" shape-rendering="geometricPrecision" text-rendering="geometricPrecision" image-rendering="optimizeQuality" fill-rule="evenodd" clip-rule="evenodd"><path d="M166667 0c46022 0 87689 18655 117851 48816 30161 30161 48816 71828 48816 117851 0 46022-18655 87689-48816 117851-30161 30161-71828 48816-117851 48816-46022 0-87689-18655-117851-48816C18655 254357 0 212690 0 166667c0-46022 18655-87689 48816-117851C78977 18655 120644 0 166667 0zm9393 210873h-68688v-31023l68688-81685h32826v83488h17077v29220h-17077v25426h-32826v-25426zm0-29220v-42883l-36273 42883h36273zm97236-121614c-27288-27288-64987-44166-106628-44166S87328 32751 60040 60039s-44166 64987-44166 106628 16878 79340 44166 106628 64987 44166 106628 44166 79340-16878 106628-44166 44166-64987 44166-106628-16878-79340-44166-106628z" fill-rule="nonzero"/></svg>